<?xml version="1.0" encoding="UTF-8" standalone="no"?>
<svg xmlns="http://www.w3.org/2000/svg" xmlns:xlink="http://www.w3.org/1999/xlink" width="40px" height="40px" viewBox="0 0 40 40" version="1.1"><title>Laughing Kawaii</title><desc>Your unique vanillicon is crafted with love by the team at vanillaforums.com.</desc><defs/><g id="vanillicon" stroke="none" stroke-width="1" fill="none" fill-rule="evenodd"><rect id="background" fill="#0CBDA3" x="-2" y="-2" width="44" height="44"/><g id="avatar" transform="rotate(-17, 20, 20) translate(3.000000, 3.000000)"><circle id="body" fill="#FFED82" cx="17" cy="17" r="16"/><g id="eyes" transform="translate(7.000000, 7)" fill="#74090B"><path d="M8.78678816,2.8485672 C8.46451431,1.14195392 7.60193603,0 5.98008964,0 C3.20368504,0 0.712149311,2.90767357 0.0873727623,5.70372061 C-0.0106613481,6.14245024 0.00281627879,6.25278427 0.00281627879,6.25278427 C-0.0333861709,6.66546012 0.27215408,7 0.684131977,7 L2.21181176,7 C2.62429448,7 2.99935929,6.66127425 3.0660017,6.26725678 C3.0660017,6.26725678 3.01873993,6.36901902 3.1248407,6.03447272 C3.58805944,4.57389778 4.97295212,3 5.47652076,3 C5.84042778,3 5.9800894,3 5.9800894,3.5 C5.9800894,4.21584289 5.98008958,6.24135654 5.98008958,6.24135654 C5.98008961,6.66034375 6.31497777,7 6.72695567,7 L8.25463545,7 C8.66711817,7 9.0012393,6.66078161 8.99999662,6.24817443 C8.99999662,6.24817443 8.96962626,3.81679327 8.78678816,2.8485672 Z" id="left_eye"/><path d="M19.7867882,2.8485672 C19.4645143,1.14195392 18.601936,0 16.9800896,0 C14.203685,0 11.7121493,2.90767357 11.0873728,5.70372061 C10.9893387,6.14245024 11.0028163,6.25278427 11.0028163,6.25278427 C10.9666138,6.66546012 11.2721541,7 11.684132,7 L13.2118118,7 C13.6242945,7 13.9993593,6.66127425 14.0660017,6.26725678 C14.0660017,6.26725678 14.0187399,6.36901902 14.1248407,6.03447272 C14.5880594,4.57389778 15.9729521,3 16.4765208,3 C16.8404278,3 16.9800894,3 16.9800894,3.5 C16.9800894,4.21584289 16.9800896,6.24135654 16.9800896,6.24135654 C16.9800896,6.66034375 17.3149778,7 17.7269557,7 L19.2546355,7 C19.6671182,7 20.0012393,6.66078161 19.9999966,6.24817443 C19.9999966,6.24817443 19.9696263,3.81679327 19.7867882,2.8485672 Z" id="right_eye" transform="translate(15.500000, 3.500000) scale(-1, 1) translate(-15.500000, -3.500000) "/></g><g id="mouth" transform="translate(6.000000, 18.000000)" fill="#74090B"><path d="M20.7999638,0 L1.20003623,0 C0.567817367,0 0.0942542904,0.579349324 0.220022974,1.19893219 C1.25292476,6.2873869 5.74469724,10 11,10 C16.2553028,10 20.7470752,6.2873869 21.779977,1.19893219 C21.9057457,0.579349324 21.4321826,0 20.7999638,0 Z" id="mouth"/></g><path d="M34,17 C34,7.61115925 26.3888407,0 17,0 C7.61115925,0 0,7.61115925 0,17 C0,26.3888407 7.61115925,34 17,34 C26.3888407,34 34,26.3888407 34,17 Z M3,17 C3,9.2680135 9.2680135,3 17,3 C24.7319865,3 31,9.2680135 31,17 C31,24.7319865 24.7319865,31 17,31 C9.2680135,31 3,24.7319865 3,17 Z" id="circle" fill="#74090B"/></g></g></svg>
