<svg width="45" height="18" viewBox="0 0 45 18" xmlns="http://www.w3.org/2000/svg"><title>Vanilla</title><g fill="#221F20" fill-rule="evenodd"><path d="M3.163 5.875c-.673 1.51-.53 2.992.022 4.497.55 1.495 1.462 2.735 2.543 3.872.267.28.547.55.822.824.038.037.08.07.15.133-.073-.316-.138-.595-.2-.873-.26-1.177-.435-2.365-.445-3.573a8.573 8.573 0 0 1 .76-3.615c.435-.972.94-1.9 1.646-2.706.402-.459.844-.887 1.438-1.068.938-.285 1.843-.168 2.657.396.529.367.69.94.496 1.553-.026.083-.062.123-.16.132-.933.093-1.83.324-2.642.803-1.387.817-2.224 2.03-2.528 3.608-.225 1.168-.117 2.326.132 3.477.3 1.388.823 2.699 1.413 3.985.024.054.05.107.073.16.1.228.099.235-.133.348-.303.148-.619.138-.936.063-.46-.108-.866-.337-1.27-.573-1.937-1.131-3.58-2.599-4.958-4.362-.565-.723-.975-1.541-1.397-2.351-.263-.506-.508-1.019-.61-1.586-.082-.462-.03-.899.226-1.302.471-.74 1.066-1.346 1.878-1.71.357-.162.76-.205 1.023-.132M29.72 6.415l.025.045c.183-.06.374-.1.546-.182.556-.263.998-.675 1.41-1.12.752-.811 1.389-1.702 1.808-2.734.12-.297.21-.603.196-.93-.013-.327-.2-.525-.521-.57-.291-.042-.517.081-.72.264-.367.328-.63.738-.876 1.158-.547.937-.982 1.93-1.399 2.93-.158.379-.313.76-.47 1.139m-3.592-1.03c.07.24.218.4.391.54.353.283.94.517 1.418.562.123-.314.246-.634.374-.95.48-1.19 1.002-2.358 1.743-3.413.49-.697 1.053-1.322 1.813-1.739.742-.407 1.524-.482 2.338-.27.417.11.665.365.745.796.14.747.026 1.463-.275 2.143-.804 1.814-2.102 3.14-3.954 3.896-.379.155-.78.239-1.192.23-.106-.003-.132.059-.166.13a7.873 7.873 0 0 0-.603 1.994c-.157.895-.209 1.794-.067 2.696.09.577.254 1.129.58 1.622.38.575.914.919 1.593 1.038.25.044.278.084.199.323-.096.288-.182.582-.308.857-.349.764-.686.859-1.444.782-.593-.06-1.04-.386-1.386-.857-.41-.557-.624-1.198-.767-1.864-.353-1.635-.31-3.266.074-4.89.142-.6.31-1.195.466-1.793l.033-.129c-.338-.132-.672-.247-.993-.391-1.009-.453-1.479-1.272-1.562-2.343-.035-.456.065-.873.394-1.206.356-.362.805-.451 1.278-.323.477.128.712.5.804.963.076.387.024.764-.172 1.111-.25.445-.69.636-1.187.525-.048-.01-.095-.023-.167-.04"/><path d="M33.725 9.156l.043.028c.024-.005.048-.008.07-.016 1.051-.373 1.948-.973 2.654-1.838.544-.665.942-1.423 1.308-2.195.16-.34.273-.702.388-1.06.055-.168.08-.364-.09-.487-.171-.125-.35-.039-.514.043-.348.173-.63.434-.895.711-1.015 1.07-1.82 2.287-2.458 3.613-.188.39-.339.8-.506 1.2m-1.948 1.365c-.19-.055-.385-.092-.563-.168a3.348 3.348 0 0 1-.547-.312.224.224 0 0 1-.06-.325c.076-.11.175-.083.276-.04.31.133.624.152.946.033.097-.037.144-.09.165-.195.312-1.522.907-2.917 1.854-4.157.976-1.278 2.227-2.202 3.684-2.859.374-.168.767-.287 1.186-.224.729.11 1.19.7 1.134 1.438-.06.794-.345 1.518-.723 2.206-.983 1.788-2.366 3.158-4.254 3.977-.408.176-.845.283-1.27.421-.062.02-.132.016-.133.12-.005.992.07 1.971.432 2.908.393 1.018 1.067 1.77 2.107 2.145.566.204.621.82.3 1.18-.387.43-.856.743-1.428.817-.566.073-1.052-.18-1.436-.582-.533-.556-.84-1.25-1.088-1.969a11.213 11.213 0 0 1-.614-3.654c0-.25.02-.5.032-.76"/><path d="M38.227 12.655c.007.113.006.226.021.338.03.22.121.423.333.505.5.192 1.017.295 1.478-.086.795-.658 1.313-1.491 1.477-2.52.09-.563-.218-.895-.789-.89-.063 0-.128.002-.19.01a2.683 2.683 0 0 0-2.33 2.643m1.574 1.782c-.33.24-.684.405-1.076.474-.917.162-1.764-.022-2.504-.586-.429-.327-.614-.806-.657-1.336-.057-.692.127-1.335.446-1.938.663-1.259 1.615-2.22 2.962-2.735.899-.344 1.803-.337 2.629.198.522.339.91.816.958 1.479.015.201-.03.407-.05.627l.305-.206c.235-.16.462-.333.708-.473.263-.15.552-.162.841-.066.518.171.731.652.46 1.123a4.434 4.434 0 0 1-.602.794c-.562.604-1.15 1.183-1.714 1.786-.226.243-.433.51-.611.789-.225.352-.096.58.32.555.414-.024.825-.103 1.248-.16 0 .278-.11.533-.335.737-.287.26-.638.36-1.013.386-.634.045-1.22-.094-1.735-.48a1.356 1.356 0 0 1-.55-.875c-.006-.027-.018-.054-.03-.093M10.96 11.383c.03.256.047.52.097.78.088.465.259.896.607 1.234.447.437 1.015.488 1.505.102.207-.163.368-.39.53-.601a.529.529 0 0 0 .082-.553c-.039-.093-.049-.2-.073-.3-.111-.452-.223-.904-.441-1.32-.297-.567-.766-.84-1.404-.805-.427.024-.777.296-.817.722-.023.244-.056.487-.086.741m1.94-2.332c.166-.62.42-1.183.852-1.654.485-.528 1.093-.614 1.668-.24.095.061.126.126.114.24-.078.757-.172 1.512-.218 2.27-.08 1.306.018 2.592.572 3.805.103.227.207.46.35.661.123.171.298.307.461.445.089.074.204.116.304.178.175.109.183.204.033.35-.152.147-.34.165-.535.134-.358-.056-.669-.222-.967-.415a4.202 4.202 0 0 1-1.055-.953l-.068.141c-.397.842-1.068 1.308-1.988 1.386-1.113.095-2.08-.259-2.886-1.033-.415-.398-.59-.918-.702-1.463a4.828 4.828 0 0 1 .14-2.54c.279-.841.869-1.36 1.677-1.652.782-.283 1.525-.216 2.196.312.012.01.026.014.052.028"/><path d="M18.254 9.237c.27-.317.52-.633.792-.929.48-.523 1.05-.908 1.773-.994.3-.035.611-.04.91 0 .418.055.69.337.853.714.266.616.269 1.253.073 1.886-.16.515-.366 1.015-.527 1.529a11.83 11.83 0 0 0-.284 1.138c-.028.135-.01.286.016.424.09.473.386.708.942.737.24.012.481-.002.72-.02.116-.008.18.028.234.127.19.345.156.68-.038 1.007-.19.32-.466.553-.797.721a.328.328 0 0 1-.112.034c-.488.054-.973.034-1.441-.125-.714-.244-1.084-.778-1.227-1.491-.13-.65-.09-1.302.015-1.949.124-.755.276-1.505.408-2.259.026-.147.027-.303.016-.453-.013-.18-.11-.233-.284-.178-.97.309-1.541.968-1.688 1.972-.076.523-.089 1.056-.157 1.581-.038.289-.106.58-.208.853-.117.312-.369.443-.687.423-.157-.01-.236-.078-.248-.235a1.04 1.04 0 0 1 .01-.293c.118-.555.037-1.089-.183-1.598-.317-.734-.66-1.455-.984-2.186a5.872 5.872 0 0 1-.302-.81c-.096-.35-.006-.53.309-.71.456-.258.889-.178 1.298.11.32.224.554.525.738.867l.06.107M23.765 10.482c.046-.833.08-1.66.297-2.468.053-.197.125-.394.22-.574.199-.37.643-.546 1.076-.449.467.105.816.452.829.873a1.35 1.35 0 0 1-.113.57c-.148.334-.33.656-.51.976-.247.44-.503.876-.636 1.369-.137.504-.1.988.17 1.448.102.175.238.247.438.221.19-.024.228.029.17.212-.122.385-.523.563-.965.425-.482-.15-.754-.496-.82-.98-.075-.537-.106-1.081-.156-1.623"/></g></svg>