<?xml version="1.0" encoding="UTF-8" standalone="no"?>
<svg width="173px" height="70px" viewBox="0 0 173 70" version="1.1" xmlns="http://www.w3.org/2000/svg" xmlns:xlink="http://www.w3.org/1999/xlink" xmlns:sketch="http://www.bohemiancoding.com/sketch/ns">
    <!-- Generator: Sketch 3.4 (15575) - http://www.bohemiancoding.com/sketch -->
    <title>Untitled 2</title>
    <desc>Created with Sketch.</desc>
    <defs></defs>
    <g id="Page-1" stroke="none" stroke-width="1" fill="none" fill-rule="evenodd" sketch:type="MSPage">
        <g id="Vanilla-Logo" sketch:type="MSLayerGroup" fill="#000000">
            <path d="M118.685,56.533 C107.308,54.63 109.092,35.817 113.156,27.811 C123.326,28.117 136.903,13.581 134.236,3.258 C133.732,1.345 132.246,0.878 131.101,0.605 C117.829,-2.544 110.903,16.372 107.468,25.203 C104.329,24.724 101.056,23.096 100.475,20.862 C107.169,23.113 108.676,12.238 102.886,10.975 C99.835,10.557 97.171,12.256 96.857,16.039 C96.857,17.914 97.193,20.033 98.546,22.308 C100.251,25.176 103.8,26.517 106.745,27.373 C105.334,32.21 103.872,37.532 103.61,43.048 C103.369,48.073 104.057,65.597 115.184,64.027 C117.667,63.677 118.713,60.232 119.525,57.517 C119.798,56.697 119.276,56.654 118.685,56.533 L118.685,56.533 Z M127.001,3.741 C135.56,3.601 120.962,25.136 114.258,24.951 C117.192,17.757 122.702,3.794 127.001,3.741 L127.001,3.741 Z M62.333,54.14 C57.806,46.374 58.749,37.763 59.922,28.097 C54.819,24.093 50.83,30.567 49.794,35.091 C44.576,30.575 37.61,34.665 35.808,37.744 C33.344,41.949 33.182,48.023 35.084,52.693 C37.866,59.527 51.991,63.297 55.823,53.418 C57.797,56.248 63.526,60.173 65.579,58.289 C67.325,56.65 63.731,57.05 62.333,54.14 L62.333,54.14 Z M47.14,52.935 C42.938,51.72 41.635,45.29 42.799,40.394 C43.68,37.923 47.111,37.765 49.311,39.189 C51.894,40.861 52.564,45.338 53.411,48.593 C52.364,51.588 49.56,53.635 47.14,52.935 L47.14,52.935 Z M138.366,59.716 C130.688,56.794 128.461,48.778 128.719,39.943 C146.689,36.103 155.62,16.181 152.593,11.487 C149.386,6.887 144.628,9.346 139.812,12.212 C136.75,14.034 126.13,20.844 122.931,37.291 C121.523,37.975 120.204,38.069 118.556,37.315 C117.912,37.069 117.503,37.583 117.579,38.296 C117.66,38.728 119.272,40.089 122.255,40.567 C121.405,48.125 123.874,60.176 128.719,65.263 C129.849,66.451 132.234,67.508 133.782,67.433 C136.018,67.328 140.933,64.453 140.294,61.888 C140.067,60.973 140.103,60.41 138.366,59.716 L138.366,59.716 Z M146.323,13.899 C148.751,14.955 142.995,24.465 141.741,26.439 C139.128,30.555 134.717,33.976 129.682,35.602 C132.389,26.376 142.96,12.404 146.323,13.899 L146.323,13.899 Z M37.402,25.686 C40.938,22.914 45.765,21.444 50.182,21.103 C52.655,14.579 44.568,11.75 39.089,12.904 C32.482,14.533 26.9,25.384 24.861,31.955 C22.311,40.178 23.902,50.148 26.067,58.722 C21.623,54.566 16.046,48.62 13.527,42.565 C13.135,41.623 12.032,38.793 11.838,38.224 C10.057,32.966 10.361,26.149 12.562,22.791 C9.746,22.249 7.041,23.811 4.845,25.686 C3.21,27.082 0.943,29.9 0.504,31.714 C-0.374,35.353 2.038,39.495 3.64,42.565 C6.842,48.702 8.964,51.464 13.527,56.069 C18.014,60.6 22.021,63.695 27.513,66.922 C30.233,68.52 33.917,70.264 36.435,68.127 C34.508,63.426 21.153,38.419 37.402,25.686 L37.402,25.686 Z M100.643,29.728 C99.898,27.427 96.587,25.966 94.181,27.894 C91.052,30.478 91.231,45.472 92.343,47.674 C93.009,50.443 97.7,52.124 98.898,48.823 C99.408,47.05 97.644,48.938 96.708,47.418 C92.449,40.851 102.017,33.982 100.643,29.728 L100.643,29.728 Z M84.076,49.8 C83.555,45.646 87.836,39.658 87.692,34.848 C87.61,32.022 86.674,29.104 83.835,28.336 C76.703,27.363 73.555,31.69 70.331,35.812 C68.726,32.383 64.945,29.123 61.409,32.195 C59.859,33.931 63.119,38.659 64.544,42.082 C65.57,44.551 66.811,47.062 66.956,49.559 C67.055,51.265 66.015,53.679 67.438,53.9 C72.07,54.454 70.78,46.494 71.778,42.324 C72.691,38.519 74.471,36.662 78.289,35.332 C83.16,33.962 67.949,62.018 87.935,60.169 C90.378,59.102 93.371,55.871 91.07,52.936 C87.831,53.123 84.542,53.511 84.076,49.8 L84.076,49.8 Z M169.685,37.984 C166.972,37.597 165.035,40.244 163.173,41.119 C164.778,36.821 161.169,34.05 160.28,33.161 C147.85,24.946 130.284,46.682 139.057,55.105 C142.85,58.085 148.842,58.824 153.044,55.587 C153.635,62.364 166.93,63.424 167.03,56.792 C150.842,60.961 169.98,47.392 172.336,42.323 C173.285,40.285 172.108,38.328 169.685,37.984 L169.685,37.984 Z M151.599,52.693 C149.175,52.572 147.507,52.424 147.017,50.282 C146.312,44.025 150.533,40.013 154.492,38.949 C165.433,36.059 156.422,52.939 151.599,52.693 L151.599,52.693 Z" id="Shape" sketch:type="MSShapeGroup"></path>
        </g>
    </g>
</svg>